<svg xmlns="http://www.w3.org/2000/svg" viewBox="-0.535 -3.209 165.241 135.295" width="165.241" height="135.295"><path d="M 77.851 -2.396 C 65.851 -1.296 54.951 5.204 48.351 15.304 L 6.751 68.704 C 2.951 74.204 0.751 80.704 0.251 87.304 L 41.851 87.304 L 77.851 40.704 C 78.151 40.504 78.151 -2.396 77.851 -2.396 M 1.151 101.104 C 0.251 98.004 -0.149 94.704 -0.049 91.504 L 71.051 91.504 L 71.051 101.104 L 1.151 101.104 Z M 2.351 104.804 C 3.651 108.304 5.351 111.504 7.651 114.404 L 71.051 114.404 L 71.051 104.504 L 2.351 104.504 L 2.351 104.804 Z M 70.951 118.404 L 11.051 118.404 C 18.451 126.104 28.651 130.304 39.351 130.204 L 71.351 130.204 L 71.351 118.404 L 70.951 118.404 Z" style="fill: rgb(0, 47, 83); stroke-width: 1px;"/><path d="M 84.951 -2.396 L 84.951 40.804 L 121.251 87.404 L 162.851 87.404 C 162.151 80.804 159.951 74.404 156.351 68.804 L 114.751 15.104 C 107.851 5.104 96.951 -1.296 84.951 -2.396 M 161.951 101.104 C 162.851 98.004 163.251 94.704 163.151 91.504 L 92.051 91.504 L 92.051 101.104 L 161.951 101.104 Z M 160.751 104.804 C 159.451 108.304 157.751 111.504 155.451 114.404 L 92.051 114.404 L 92.051 104.504 L 160.651 104.504 L 160.751 104.804 Z M 92.051 118.404 L 151.951 118.404 C 144.551 126.104 134.351 130.304 123.651 130.204 L 91.651 130.204 L 91.651 118.404 L 92.051 118.404 Z" style="fill: rgb(197, 0, 75); stroke-width: 1px;"/></svg>